<?xml version="1.0" encoding="UTF-8" standalone="no"?>
<!DOCTYPE svg PUBLIC "-//W3C//DTD SVG 1.1//EN"
 "http://www.w3.org/Graphics/SVG/1.1/DTD/svg11.dtd">
<!-- Generated by graphviz version 14.0.1 (20251006.0113)
 -->
<!-- Pages: 1 -->
<svg width="262pt" height="116pt"
 viewBox="0.00 0.00 262.00 116.00" xmlns="http://www.w3.org/2000/svg" xmlns:xlink="http://www.w3.org/1999/xlink">
<g id="graph0" class="graph" transform="scale(1 1) rotate(0) translate(4 112)">
<polygon fill="white" stroke="none" points="-4,4 -4,-112 257.55,-112 257.55,4 -4,4"/>
<!-- dev/jumpbox -->
<g id="node1" class="node">
<title>dev/jumpbox</title>
<ellipse fill="none" stroke="black" cx="60.05" cy="-90" rx="60.05" ry="18"/>
<text xml:space="preserve" text-anchor="middle" x="60.05" y="-84.95" font-family="Times,serif" font-size="14.00">dev/jumpbox</text>
</g>
<!-- dev/network -->
<g id="node2" class="node">
<title>dev/network</title>
<ellipse fill="none" stroke="black" cx="60.05" cy="-18" rx="56.98" ry="18"/>
<text xml:space="preserve" text-anchor="middle" x="60.05" y="-12.95" font-family="Times,serif" font-size="14.00">dev/network</text>
</g>
<!-- dev/jumpbox&#45;&gt;dev/network -->
<g id="edge1" class="edge">
<title>dev/jumpbox&#45;&gt;dev/network</title>
<path fill="none" stroke="black" d="M60.05,-71.7C60.05,-64.41 60.05,-55.73 60.05,-47.54"/>
<polygon fill="black" stroke="black" points="63.55,-47.62 60.05,-37.62 56.55,-47.62 63.55,-47.62"/>
</g>
<!-- stg/jumpbox -->
<g id="node3" class="node">
<title>stg/jumpbox</title>
<ellipse fill="none" stroke="black" cx="196.05" cy="-90" rx="57.49" ry="18"/>
<text xml:space="preserve" text-anchor="middle" x="196.05" y="-84.95" font-family="Times,serif" font-size="14.00">stg/jumpbox</text>
</g>
<!-- stg/network -->
<g id="node4" class="node">
<title>stg/network</title>
<ellipse fill="none" stroke="black" cx="196.05" cy="-18" rx="54.42" ry="18"/>
<text xml:space="preserve" text-anchor="middle" x="196.05" y="-12.95" font-family="Times,serif" font-size="14.00">stg/network</text>
</g>
<!-- stg/jumpbox&#45;&gt;stg/network -->
<g id="edge2" class="edge">
<title>stg/jumpbox&#45;&gt;stg/network</title>
<path fill="none" stroke="black" d="M196.05,-71.7C196.05,-64.41 196.05,-55.73 196.05,-47.54"/>
<polygon fill="black" stroke="black" points="199.55,-47.62 196.05,-37.62 192.55,-47.62 199.55,-47.62"/>
</g>
</g>
</svg>
